<svg width="28" height="28" viewBox="0 0 28 28" fill="none" xmlns="http://www.w3.org/2000/svg">
<mask id="mask0_28_501" style="mask-type:luminance" maskUnits="userSpaceOnUse" x="1" y="1" width="26" height="26">
<path d="M25.9583 11.6667H14V16.625H20.8833C20.2416 19.775 17.5583 21.5833 14 21.5833C9.79996 21.5833 6.41663 18.2 6.41663 14C6.41663 9.79999 9.79996 6.41666 14 6.41666C15.8083 6.41666 17.4416 7.05832 18.725 8.10832L22.4583 4.37499C20.1833 2.39166 17.2666 1.16666 14 1.16666C6.88329 1.16666 1.16663 6.88332 1.16663 14C1.16663 21.1167 6.88329 26.8333 14 26.8333C20.4166 26.8333 26.25 22.1667 26.25 14C26.25 13.2417 26.1333 12.425 25.9583 11.6667Z" fill="white"/>
</mask>
<g mask="url(#mask0_28_501)">
<path d="M0 21.5833V6.41666L9.91667 14L0 21.5833Z" fill="#FBBC05"/>
</g>
<mask id="mask1_28_501" style="mask-type:luminance" maskUnits="userSpaceOnUse" x="1" y="1" width="26" height="26">
<path d="M25.9583 11.6667H14V16.625H20.8833C20.2416 19.775 17.5583 21.5833 14 21.5833C9.79996 21.5833 6.41663 18.2 6.41663 14C6.41663 9.79999 9.79996 6.41666 14 6.41666C15.8083 6.41666 17.4416 7.05832 18.725 8.10832L22.4583 4.37499C20.1833 2.39166 17.2666 1.16666 14 1.16666C6.88329 1.16666 1.16663 6.88332 1.16663 14C1.16663 21.1167 6.88329 26.8333 14 26.8333C20.4166 26.8333 26.25 22.1667 26.25 14C26.25 13.2417 26.1333 12.425 25.9583 11.6667Z" fill="white"/>
</mask>
<g mask="url(#mask1_28_501)">
<path d="M0 6.41667L9.91667 14L14 10.4417L28 8.16667V0H0V6.41667Z" fill="#EA4335"/>
</g>
<mask id="mask2_28_501" style="mask-type:luminance" maskUnits="userSpaceOnUse" x="1" y="1" width="26" height="26">
<path d="M25.9583 11.6667H14V16.625H20.8833C20.2416 19.775 17.5583 21.5833 14 21.5833C9.79996 21.5833 6.41663 18.2 6.41663 14C6.41663 9.79999 9.79996 6.41666 14 6.41666C15.8083 6.41666 17.4416 7.05832 18.725 8.10832L22.4583 4.37499C20.1833 2.39166 17.2666 1.16666 14 1.16666C6.88329 1.16666 1.16663 6.88332 1.16663 14C1.16663 21.1167 6.88329 26.8333 14 26.8333C20.4166 26.8333 26.25 22.1667 26.25 14C26.25 13.2417 26.1333 12.425 25.9583 11.6667Z" fill="white"/>
</mask>
<g mask="url(#mask2_28_501)">
<path d="M0 21.5833L17.5 8.16667L22.1083 8.75L28 0V28H0V21.5833Z" fill="#34A853"/>
</g>
<mask id="mask3_28_501" style="mask-type:luminance" maskUnits="userSpaceOnUse" x="1" y="1" width="26" height="26">
<path d="M25.9583 11.6667H14V16.625H20.8833C20.2416 19.775 17.5583 21.5833 14 21.5833C9.79996 21.5833 6.41663 18.2 6.41663 14C6.41663 9.79999 9.79996 6.41666 14 6.41666C15.8083 6.41666 17.4416 7.05832 18.725 8.10832L22.4583 4.37499C20.1833 2.39166 17.2666 1.16666 14 1.16666C6.88329 1.16666 1.16663 6.88332 1.16663 14C1.16663 21.1167 6.88329 26.8333 14 26.8333C20.4166 26.8333 26.25 22.1667 26.25 14C26.25 13.2417 26.1333 12.425 25.9583 11.6667Z" fill="white"/>
</mask>
<g mask="url(#mask3_28_501)">
<path d="M27.9999 28L9.91659 14L7.58325 12.25L27.9999 6.41666V28Z" fill="#4285F4"/>
</g>
</svg>
