<svg width="74" height="74" viewBox="0 0 74 74" fill="none" xmlns="http://www.w3.org/2000/svg">
<rect width="74" height="74" rx="23" fill="#F6F0D8"/>
<g clip-path="url(#clip0_0_1)">
<path d="M50.8739 50.8149C50.6267 50.6498 50.4215 50.5241 50.2287 50.3862C45.6131 47.0969 40.9975 43.8077 36.382 40.516C32.9629 38.0793 29.5513 35.6278 26.1199 33.2083C24.0853 31.7719 23.0816 29.8452 23.1088 27.3567C23.1261 25.7823 23.0841 24.2079 23.0742 22.6335C23.0742 22.5054 23.1088 22.3773 23.1385 22.1752C23.3214 22.2812 23.45 22.3428 23.5637 22.4241C27.2423 25.0579 30.9234 27.6967 34.5995 30.333C39.1508 33.5951 43.7046 36.8548 48.2485 40.1243C49.8875 41.3045 50.8517 42.9207 50.953 44.9263C51.0495 46.8087 50.9605 48.6984 50.9481 50.5857C50.9506 50.635 50.9209 50.6843 50.8739 50.8149Z" fill="#202020"/>
<path d="M23.047 33.0358C23.4994 33.3635 23.8455 33.6148 24.1916 33.8686C27.5439 36.33 30.8912 38.7987 34.2509 41.2503C36.0507 42.561 36.9506 44.3375 37.0124 46.5278C37.0593 48.2377 37.0247 49.9501 37.0223 51.66C37.0223 51.7511 36.9975 51.8423 36.9753 52.0024C36.827 51.9285 36.7058 51.8866 36.6069 51.8152C33.8653 49.8318 31.1236 47.846 28.3844 45.8601C27.4821 45.2072 26.5723 44.5617 25.6799 43.894C23.9221 42.5758 23.0247 40.8117 23.0074 38.6189C22.9926 36.9632 23.0049 35.305 23.0074 33.6493C23.0074 33.4916 23.0247 33.334 23.047 33.0358Z" fill="#202020"/>
<path d="M50.8369 39.8976C50.7182 39.8163 50.5971 39.7399 50.4833 39.6562C46.9036 37.0618 43.3214 34.4747 39.754 31.8705C37.9419 30.5474 37.0247 28.7438 37.0074 26.5017C36.9951 24.8584 37.005 23.215 37.005 21.5716C37.005 21.4115 37.005 21.2513 37.005 21C37.1978 21.1035 37.3313 21.1528 37.4425 21.2341C41.0791 23.9049 44.7281 26.5658 48.3474 29.2612C50.0779 30.5498 50.9704 32.2992 50.9629 34.4772C50.9555 36.1058 50.9605 37.7368 50.9605 39.3654C50.9605 39.5231 50.9605 39.6808 50.9605 39.841C50.9184 39.8582 50.8764 39.8779 50.8369 39.8976Z" fill="#202020"/>
</g>
<defs>
<clipPath id="clip0_0_1">
<rect width="28" height="31" fill="white" transform="translate(23 21)"/>
</clipPath>
</defs>
</svg>
