<svg width="32" height="32" viewBox="0 0 32 32" fill="none" xmlns="http://www.w3.org/2000/svg">
<g clip-path="url(#clip0_25_220)">
<path d="M16 32C24.8365 32 32 24.8365 32 16C32 7.16344 24.8365 0 16 0C7.16344 0 0 7.16344 0 16C0 24.8365 7.16344 32 16 32Z" fill="#16C784"/>
<path d="M15.301 25.3334H16.7396L16.7464 23.6636C19.6573 23.4375 21.3265 21.7167 21.3333 19.274C21.3265 16.6855 19.3384 15.5042 17.2485 14.9719L16.8006 14.8479L16.8278 10.6844C17.9134 10.8886 18.6124 11.5886 18.7209 12.6386H21.1433C21.1026 10.3198 19.4062 8.62814 16.8413 8.36565L16.8481 6.66669H15.4097L15.4029 8.36565C12.8583 8.64273 11.0263 10.3198 11.033 12.7334C11.033 14.8771 12.4512 16.1094 14.7378 16.7438L15.3486 16.9115L15.3214 21.323C14.1069 21.1188 13.2315 20.375 13.1433 19.0552H10.6666C10.7616 21.7896 12.5123 23.4156 15.3078 23.6636L15.301 25.3334ZM16.76 21.323L16.787 17.3198C18.022 17.7063 18.8092 18.2167 18.816 19.2522C18.8092 20.3312 18.0017 21.1042 16.76 21.323ZM15.3621 14.4542C14.4257 14.1334 13.5708 13.6011 13.5844 12.5656C13.5912 11.625 14.2493 10.8959 15.3893 10.6844L15.3621 14.4542Z" fill="white"/>
</g>
<defs>
<clipPath id="clip0_25_220">
<rect width="32" height="32" fill="white"/>
</clipPath>
</defs>
</svg>
